<svg width="20" height="20" viewBox="0 0 20 20" fill="none" xmlns="http://www.w3.org/2000/svg">
<path d="M10 20C4.477 20 0 15.523 0 10C0 4.477 4.477 0 10 0C15.523 0 20 4.477 20 10C20 15.523 15.523 20 10 20ZM5 16.245V11C5 10.4696 5.21071 9.96086 5.58579 9.58579C5.96086 9.21071 6.46957 9 7 9H13C13.5304 9 14.0391 9.21071 14.4142 9.58579C14.7893 9.96086 15 10.4696 15 11V16.245C16.2939 15.2091 17.234 13.7969 17.6905 12.2035C18.1471 10.6102 18.0974 8.91439 17.5485 7.35047C16.9996 5.78656 15.9784 4.43175 14.6262 3.47328C13.274 2.51481 11.6575 2 10 2C8.34254 2 6.726 2.51481 5.37378 3.47328C4.02156 4.43175 3.00043 5.78656 2.45149 7.35047C1.90256 8.91439 1.85293 10.6102 2.30946 12.2035C2.76599 13.7969 3.70615 15.2091 5 16.245Z" fill="#6E80B0"/>
</svg>
