<svg width="10" height="18" viewBox="0 0 10 18" fill="none" xmlns="http://www.w3.org/2000/svg">
<path d="M8.85 1.49167C8.75324 1.39466 8.63829 1.3177 8.51174 1.26518C8.38519 1.21267 8.24952 1.18564 8.1125 1.18564C7.97549 1.18564 7.83982 1.21267 7.71327 1.26518C7.58671 1.3177 7.47177 1.39466 7.375 1.49167L0.450002 8.41667C0.372749 8.49376 0.31146 8.58534 0.269642 8.68615C0.227824 8.78696 0.206299 8.89503 0.206299 9.00417C0.206299 9.11331 0.227824 9.22138 0.269642 9.32219C0.31146 9.423 0.372749 9.51457 0.450002 9.59167L7.375 16.5167C7.78334 16.925 8.44167 16.925 8.85 16.5167C9.25834 16.1083 9.25834 15.45 8.85 15.0417L2.81667 9L8.85834 2.95833C9.25834 2.55833 9.25834 1.89167 8.85 1.49167Z" fill="#18172B" stroke="#18172B" stroke-width="0.4"/>
</svg>
