<svg width="40" height="38" viewBox="0 0 40 38" fill="none" xmlns="http://www.w3.org/2000/svg">
<path d="M39.1837 21.8716L34.1897 23.1681C34.1417 21.5835 34.1417 20.431 34.1417 20.431H20.3121H20.2641H19.7839H19.7359H5.90637C5.90637 20.431 5.85835 21.5835 5.85835 23.2161L0.816332 21.8716C0.240101 21.7275 -0.336129 23.8404 0.28812 23.9845L5.85835 25.425C5.85835 27.4899 5.85835 29.7468 6.00241 31.0913C6.29052 34.2125 7.05883 36.0373 11.3325 36.7095C15.03 37.2858 18.9676 37.2377 20.024 37.2377C21.0804 37.2858 25.018 37.2858 28.7155 36.7095C33.0372 36.0373 33.7575 34.1645 34.0456 31.0913C34.1897 29.6987 34.1897 27.4899 34.1897 25.377L39.7119 23.9364C40.3361 23.8404 39.7599 21.7275 39.1837 21.8716Z" fill="#01246B"/>
<path d="M6.62667 18.6063C7.97121 16.6855 7.53903 14.5247 5.33015 13.1321C3.12127 11.7395 2.92919 9.14651 4.946 6.31338C6.29053 4.34459 5.76232 2.13571 3.55344 0.743149" stroke="white" stroke-opacity="0.5" stroke-miterlimit="10" stroke-linecap="round"/>
<path d="M8.73949 10.443C7.29891 9.14651 7.44297 7.32178 9.31572 5.44903C10.6603 4.10449 10.4682 2.56788 9.0276 1.27136" stroke="white" stroke-opacity="0.5" stroke-miterlimit="10" stroke-linecap="round"/>
<path d="M23.0012 14.1885L23.3854 13.3242C22.521 13.0361 21.9928 12.5559 22.0408 12.0757C22.1369 11.4994 23.2413 11.1633 24.5378 11.3554C25.8343 11.5475 26.7467 12.2197 26.6507 12.796C26.5546 13.2762 25.8824 13.5643 24.97 13.5643L25.066 14.4766C32.2689 15.7732 37.7911 17.982 37.503 19.5667L9.50781 14.9568C9.79593 13.4682 15.7503 13.1321 23.0012 14.1885Z" fill="#01246B"/>
<path d="M15.03 15.1969L11.5246 14.6207C12.2449 13.9484 15.1741 13.8044 18.9196 14.1885C15.03 14.1405 14.934 14.9088 15.03 15.1969Z" fill="white"/>
<path d="M22.8091 12.7479C22.6651 12.6039 22.6651 12.4598 22.7131 12.2678C22.8091 11.7876 23.6735 11.4995 24.6819 11.5955C24.6338 11.5955 24.5858 11.5475 24.5378 11.5475C23.4334 11.3554 22.521 11.6435 22.425 12.1237C22.3769 12.3638 22.569 12.5559 22.8091 12.7479Z" fill="white"/>
<path d="M16.2785 35.8452C12.2449 35.2209 11.5726 33.5403 11.2845 30.7071C11.0444 28.2582 11.1885 22.832 11.2365 21.3434H6.96279C6.91477 22.784 6.81874 28.3062 7.01081 30.7552C7.29893 33.5883 7.9712 35.269 12.0048 35.8932C15.4622 36.4214 19.1117 36.3734 20.1201 36.3734C20.5522 36.3734 18.7275 36.2293 16.2785 35.8452Z" fill="white"/>
</svg>
