<svg width="18" height="19" viewBox="0 0 18 19" fill="none" xmlns="http://www.w3.org/2000/svg">
<path d="M17.832 1.555C17.9325 1.4044 17.9902 1.22935 17.999 1.04852C18.0077 0.867687 17.9673 0.687865 17.8819 0.528235C17.7965 0.368605 17.6693 0.235156 17.514 0.142126C17.3587 0.049095 17.181 -2.70837e-05 17 1.12028e-08H0.999996C0.819112 9.3452e-05 0.64164 0.0492478 0.486483 0.142228C0.331325 0.235208 0.204293 0.368532 0.118915 0.527999C0.0335377 0.687466 -0.00698764 0.867105 0.00165555 1.04778C0.0102987 1.22846 0.0677866 1.40341 0.167997 1.554L8 13.303V17H5V19H13V17H10V13.303L17.832 1.555ZM9 11.197L5.535 6H12.465L9 11.197ZM15.132 2L13.799 4H4.201L2.868 2H15.132Z" fill="#6E80B0"/>
</svg>
