<svg width="20" height="20" viewBox="0 0 20 20" fill="none" xmlns="http://www.w3.org/2000/svg">
<path d="M20 9.99999C20 9.84599 20 9.70225 19.9898 9.54824C19.9898 9.48664 19.9795 9.43531 19.9795 9.37371C19.9692 9.2813 19.9692 9.19917 19.959 9.10676C19.9487 9.0349 19.9487 8.97329 19.9384 8.90143C19.9282 8.78849 19.9076 8.66529 19.8974 8.55235C19.8974 8.54208 19.8974 8.54208 19.8974 8.53182C19.1068 13.039 15.2978 16.5092 10.6263 16.7864C10.4723 16.7967 10.3183 16.807 10.1643 16.807C10.1129 16.807 10.0513 16.807 10 16.807C9.97948 16.807 9.96921 16.807 9.94868 16.807C9.85627 16.807 9.77414 16.807 9.68174 16.7967C9.65094 16.7967 9.62013 16.7967 9.58933 16.7967C9.5688 16.7967 9.538 16.7967 9.51746 16.7967C9.40453 16.7864 9.29159 16.7762 9.17866 16.7659C4.54826 16.3655 0.821356 12.8131 0.164271 8.25461C0.143737 8.38808 0.123203 8.52155 0.10267 8.65502C0.10267 8.67555 0.10267 8.68582 0.0924026 8.70635C0.0718687 8.82956 0.0616017 8.95276 0.0513348 9.07596C0.0513348 9.1273 0.0410678 9.17863 0.0410678 9.24024C0.0308009 9.33264 0.0308009 9.42504 0.0205339 9.51744C0 9.68171 0 9.83572 0 9.98972V9.99999C0 14.4866 2.95688 18.2854 7.0226 19.5483C7.1766 19.5996 7.34087 19.6407 7.49487 19.6817C8.2957 19.8871 9.12732 20 9.98975 20C15.5236 20 20 15.5236 20 9.99999Z" fill="#6D61F2"/>
<path d="M0.800735 8.17249C1.09848 10.2362 2.10464 12.1766 3.63441 13.614C4.11696 14.0657 4.65084 14.4661 5.21552 14.8152C4.06563 13.6653 3.2956 12.1253 3.18267 10.462C2.95679 7.06366 5.22579 4.15812 8.33668 3.37783C8.78842 3.26489 9.2299 3.61397 9.2299 4.08625V5.70843C9.2299 6.33471 8.88083 6.90966 8.33668 7.22793C7.35105 7.82342 6.69397 8.95278 6.7761 10.2156C6.88904 11.8789 8.28534 13.2033 9.94859 13.2238C11.7556 13.2546 13.2237 11.7967 13.2237 10C13.2237 8.80904 12.5769 7.77208 11.6221 7.21767C11.078 6.89939 10.7597 6.30391 10.7597 5.67762V4.08625C10.7597 3.61397 11.2012 3.26489 11.6632 3.37783C14.6303 4.11705 16.8274 6.80699 16.8274 10C16.8274 11.8994 16.0472 13.6242 14.7843 14.8665C15.2977 14.5688 15.7802 14.2095 16.232 13.8193C17.8131 12.423 18.8808 10.5134 19.2402 8.43943L19.5071 6.91993C18.2135 2.90555 14.4455 0 9.99992 0C5.657 0 1.9609 2.77208 0.585129 6.64272L0.800735 8.17249Z" fill="#6D61F2"/>
</svg>
