<svg width="22" height="19" viewBox="0 0 22 19" fill="none" xmlns="http://www.w3.org/2000/svg">
<path d="M10.2751 3.61047L10.9981 4.36734L11.7212 3.61047C12.6017 2.68883 14.0006 1.58984 15.4944 1.58984C16.9221 1.58984 18.0744 2.08348 18.8673 2.87499C19.66 3.66638 20.1538 4.81567 20.1538 6.23907C20.1538 7.78047 19.5543 9.07492 18.5785 10.2912C17.5834 11.5314 16.2484 12.6301 14.8331 13.7897C14.8331 13.7898 14.833 13.7898 14.833 13.7899L14.8108 13.808C13.5232 14.8626 12.1071 16.0224 10.9986 17.3231C9.90108 16.0332 8.49808 14.8824 7.22143 13.8353L7.16649 13.7902L7.16609 13.7899C5.75035 12.6298 4.41549 11.5308 3.42079 10.2906C2.44529 9.07438 1.84613 7.78012 1.84613 6.23907C1.84613 4.81568 2.33993 3.6664 3.13277 2.87503C3.92574 2.08353 5.0782 1.58984 6.50644 1.58984C7.99874 1.58984 9.3938 2.688 10.2751 3.61047Z" stroke="#18172B" stroke-width="2"/>
</svg>
